<?xml version="1.0" standalone="no"?>
<!DOCTYPE svg PUBLIC "-//W3C//DTD SVG 20010904//EN"
 "http://www.w3.org/TR/2001/REC-SVG-20010904/DTD/svg10.dtd">
<svg version="1.0" xmlns="http://www.w3.org/2000/svg"
 width="150.000000pt" height="150.000000pt" viewBox="0 0 150.000000 150.000000"
 preserveAspectRatio="xMidYMid meet">
<metadata>
Taken directly from http://www.athenapdf.com/ without any permissions
Created by potrace 1.14, written by Peter Selinger 2001-2017
</metadata>
<g transform="translate(0.000000,150.000000) scale(0.100000,-0.100000)"
fill="#000000" stroke="none">
<path d="M544 1300 c-114 -30 -190 -74 -274 -159 -87 -88 -123 -149 -150 -257
-35 -137 -23 -259 40 -389 47 -98 119 -180 205 -234 72 -46 183 -86 263 -94
l52 -6 0 234 0 235 -125 0 -125 0 0 105 0 105 125 0 125 0 0 240 0 240 -32 -1
c-18 0 -65 -9 -104 -19z"/>
<path d="M710 1168 l0 -153 150 -135 c82 -74 150 -140 150 -145 0 -6 -67 -71
-149 -145 l-150 -135 0 -147 -1 -148 340 0 c319 0 340 1 340 18 0 9 -22 35
-50 57 l-50 40 0 372 0 373 -130 0 c-174 0 -170 -4 -170 170 l0 130 -140 0
-140 0 0 -152z"/>
<path d="M1020 1198 c0 -62 5 -120 10 -128 7 -12 36 -16 130 -19 66 -2 120 1
120 6 0 10 -242 253 -253 253 -4 0 -7 -51 -7 -112z"/>
</g>
</svg>
